<svg xmlns="http://www.w3.org/2000/svg" viewBox="0 0 64 64" role="img" aria-label="Website">
  <rect width="64" height="64" rx="16" fill="#e8e2d5"/>
  <path d="M32 14a18 18 0 1 0 0 36 18 18 0 0 0 0-36Zm12.7 15h-6.2a31 31 0 0 0-2.2-9 14.2 14.2 0 0 1 8.4 9ZM32 18c1.7 2.2 3.1 6.1 3.5 11h-7c.4-4.9 1.8-8.8 3.5-11Zm-4.3 2a31 31 0 0 0-2.2 9h-6.2a14.2 14.2 0 0 1 8.4-9Zm-8.4 15h6.2a31 31 0 0 0 2.2 9 14.2 14.2 0 0 1-8.4-9ZM32 46c-1.7-2.2-3.1-6.1-3.5-11h7c-.4 4.9-1.8 8.8-3.5 11Zm4.3-2a31 31 0 0 0 2.2-9h6.2a14.2 14.2 0 0 1-8.4 9Z" fill="#665d4c"/>
</svg>
